PathFileType	4	(X/Y/Z)	/Users/itak/Documents/Research/Walk-IL/dataset/trc/00366_00011.trc
DataRate	CameraRate	NumFrames	NumMarkers	Units	OrigDataRate	OrigDataStartFrame	OrigNumFrames
100.000000	100.000000	4	56	mm	100.000000	98	392
Frame#	Time	RPSI			LPSI			L3			STRN			T10			C7			CLAV			RBAK			LBAK			LSHO			LUPA			LAEL			LAOL			LWPS			LFRA			LIFD			LHPS			LHTS			RSHO			RUPA			RAEL			RAOL			RWTS			RWPS			RFRA			RIFD			RHTS			RHPS			RBHD			LFHD			RFHD			LBHD			LHIP			RHIP			RASI			LASI			LKNE			LTHI			LANK			LTIP			LTOE			LMT1			LMT5			LHEE			RKNE			RTHI			RANK			RTIP			RTOE			RMT1			RMT5			RHEE			LWTS			*53			*54			*55			
		X1	Y1	Z1	X2	Y2	Z2	X3	Y3	Z3	X4	Y4	Z4	X5	Y5	Z5	X6	Y6	Z6	X7	Y7	Z7	X8	Y8	Z8	X9	Y9	Z9	X10	Y10	Z10	X11	Y11	Z11	X12	Y12	Z12	X13	Y13	Z13	X14	Y14	Z14	X15	Y15	Z15	X16	Y16	Z16	X17	Y17	Z17	X18	Y18	Z18	X19	Y19	Z19	X20	Y20	Z20	X21	Y21	Z21	X22	Y22	Z22	X23	Y23	Z23	X24	Y24	Z24	X25	Y25	Z25	X26	Y26	Z26	X27	Y27	Z27	X28	Y28	Z28	X29	Y29	Z29	X30	Y30	Z30	X31	Y31	Z31	X32	Y32	Z32	X33	Y33	Z33	X34	Y34	Z34	X35	Y35	Z35	X36	Y36	Z36	X37	Y37	Z37	X38	Y38	Z38	X39	Y39	Z39	X40	Y40	Z40	X41	Y41	Z41	X42	Y42	Z42	X43	Y43	Z43	X44	Y44	Z44	X45	Y45	Z45	X46	Y46	Z46	X47	Y47	Z47	X48	Y48	Z48	X49	Y49	Z49	X50	Y50	Z50	X51	Y51	Z51	X52	Y52	Z52	X53	Y53	Z53	X54	Y54	Z54	X55	Y55	Z55	X56	Y56	Z56	

99	0.98	-1050.887939453125	938.4786376953125	-69.540771484375	-1052.281616210938	946.7465209960938	-199.3186950683594	-1049.5458984375	1009.01025390625	-145.0278930664062	-800.4642333984375	1162.724609375	-139.0177612304688	-1045.163208007812	1125.19384765625	-175.8788299560547	-973.9154663085938	1362.732666015625	-193.7714538574219	-830.6322021484375	1291.281616210938	-149.8056488037109	-1046.52685546875	1227.82275390625	-139.2754058837891	-964.9672241210938	1324.022338867188	-296.2095336914062	-865.7098999023438	1332.540771484375	-329.04833984375	-871.0401000976562	1208.8681640625	-395.2303466796875	-849.2068481445312	1003.333679199219	-396.4782104492188	-923.9277954101562	989.6096801757812	-359.500244140625	-765.1464233398438	759.6765747070312	-354.2124938964844	-823.01904296875	899.205322265625	-387.9393310546875	-708.3428344726562	634.2815551757812	-253.9741363525391	-759.0198364257812	692.9163208007812	-330.0915222167969	-709.6304321289062	711.4871826171875	-294.6167297363281	-959.2718505859375	1348.454956054688	-20.72881317138672	-998.7230224609375	1289.87451171875	35.04776763916016	-1075.919067382812	1034.382202148438	56.27243804931641	-1071.088745117188	1029.6220703125	-38.1480827331543	-1027.302612304688	781.9468383789062	62.10018539428711	-1092.248291015625	785.9610595703125	105.180534362793	-1077.503051757812	965.962158203125	75.78839111328125	-1080.034057617188	614.48486328125	76.00351715087891	-1044.215698242188	678.3981323242188	86.050048828125	-1108.037353515625	702.5133056640625	108.1937408447266	-930.9558715820312	1562.808959960938	-94.44960784912109	-733.72314453125	1556.60498046875	-162.6331939697266	-770.6569213867188	1556.969970703125	-68.04658508300781	-905.0885009765625	1560.720581054688	-236.5324859619141	-981.3015747070312	879.6163940429688	-308.8846740722656	-962.8919067382812	884.7306518554688	33.97576904296875	-862.3812866210938	906.0606689453125	-21.48658180236816	-851.5509033203125	890.0977783203125	-259.8268127441406	-1071.16796875	441.3290100097656	-288.4563903808594	-1025.535278320312	571.1898193359375	-298.0605163574219	-1313.349365234375	74.29069519042969	-251.1362457275391	-1195.17236328125	251.6585388183594	-281.6158752441406	-1114.634155273438	44.71512603759766	-189.7739410400391	-1181.984130859375	41.74453735351562	-148.0605010986328	-1192.500732421875	46.27310562133789	-263.689208984375	-1346.789184570312	89.64366149902344	-183.7410583496094	-768.4853515625	446.2105407714844	-15.2424783706665	-835.72119140625	695.9610595703125	34.99175643920898	-694.2723388671875	44.29996109008789	-70.26260375976562	-724.0751953125	337.3083801269531	-27.1687068939209	-502.0571594238281	89.03749084472656	-58.19272994995117	-537.7350463867188	71.05138397216797	-115.0019989013672	-603.42529296875	50.34192276000977	-20.60254287719727	-725.51806640625	37.97129440307617	-131.2618408203125	-731.970703125	789.9434814453125	-301.136962890625	nan	nan	nan	nan	nan	nan	nan	nan	nan	
100	0.99	-1040.782348632812	938.7129516601562	-67.91996765136719	-1041.792114257812	946.642822265625	-197.7794342041016	-1039.08251953125	1008.437866210938	-143.6406555175781	-790.5713500976562	1162.741943359375	-136.7150726318359	-1035.16943359375	1124.808837890625	-174.2337493896484	-964.4676513671875	1362.54248046875	-191.62744140625	-820.9124145507812	1291.3076171875	-147.3837280273438	-1036.98681640625	1227.388916015625	-137.5628051757812	-955.2853393554688	1323.964477539062	-294.0989685058594	-855.9400024414062	1332.50927734375	-326.751953125	-861.3073120117188	1208.787109375	-392.8337707519531	-840.2058715820312	1003.228088378906	-394.2625122070312	-914.8329467773438	989.7205200195312	-356.9294738769531	-756.924072265625	759.3743286132812	-352.9371032714844	-814.4986572265625	899.009033203125	-386.0624084472656	-699.2797241210938	633.7674560546875	-253.3360137939453	-750.6670532226562	692.6044311523438	-328.8766784667969	-700.783203125	711.1560668945312	-294.0880126953125	-950.2155151367188	1347.982543945312	-18.54773139953613	-989.718994140625	1289.131591796875	36.96604919433594	-1066.9423828125	1033.571655273438	57.3792724609375	-1061.434692382812	1028.919311523438	-36.96556854248047	-1018.947204589844	781.0752563476562	63.22203826904297	-1084.13623046875	785.3108520507812	105.996711730957	-1068.774780273438	965.2249755859375	76.85789489746094	-1072.399658203125	613.8037109375	76.51065826416016	-1036.408203125	677.530029296875	86.94711303710938	-1100.248046875	701.9016723632812	108.7382736206055	-922.2101440429688	1562.73291015625	-92.36165618896484	-724.8358154296875	1557.1796875	-160.0995178222656	-761.9244384765625	1557.440795898438	-65.58607482910156	-896.019775390625	1560.745483398438	-234.3687438964844	-970.8336791992188	879.3478393554688	-307.2972412109375	-953.031005859375	885.20654296875	35.89454650878906	-852.4896240234375	906.2276611328125	-19.66498565673828	-841.0346069335938	889.6600341796875	-257.9048461914062	-1063.222534179688	442.3130493164062	-287.7766723632812	-1016.580505371094	571.5181274414062	-297.0800476074219	-1311.259399414062	78.38141632080078	-252.4137268066406	-1190.062255859375	253.9595031738281	-281.9683837890625	-1114.194458007812	44.66282653808594	-190.1375274658203	-1181.30322265625	42.84456634521484	-148.5790710449219	-1191.528076171875	46.43299865722656	-264.2929077148438	-1344.431762695312	95.17337799072266	-185.2076873779297	-758.689697265625	446.8910522460938	-14.32464790344238	-825.6390380859375	696.243408203125	36.79608154296875	-692.5553588867188	44.89732360839844	-70.87612915039062	-715.1260986328125	336.9612121582031	-27.14480590820312	-498.3764953613281	83.40167999267578	-60.89809036254883	-535.2532348632812	65.76325225830078	-117.1795959472656	-600.9414672851562	48.58510589599609	-22.51679229736328	-724.25390625	39.12505722045898	-131.7854461669922	-723.0739135742188	789.5443725585938	-300.1804504394531	nan	nan	nan	nan	nan	nan	nan	nan	nan	
101	1	-1030.514282226562	939.3944091796875	-66.36309051513672	-1031.042846679688	946.8511962890625	-196.302734375	-1028.394409179688	1008.163269042969	-142.3138122558594	-780.5595092773438	1163.125366210938	-134.3001708984375	-1024.993041992188	1124.742309570312	-172.5938262939453	-954.886962890625	1362.693237304688	-189.4676971435547	-811.0806884765625	1291.685791015625	-144.9042358398438	-1027.31494140625	1227.312133789062	-135.8238677978516	-945.4381713867188	1324.2353515625	-291.9560852050781	-846.0049438476562	1332.800537109375	-324.3941040039062	-851.4256591796875	1209.048706054688	-390.3713989257812	-831.080810546875	1003.473388671875	-392.0160522460938	-905.65380859375	990.2102661132812	-354.34912109375	-748.7818603515625	759.36181640625	-351.75830078125	-805.9453735351562	899.15673828125	-384.2143859863281	-690.5690307617188	633.3525390625	-252.8789367675781	-742.45361328125	692.5488891601562	-327.8419799804688	-692.0813598632812	711.0730590820312	-293.6373596191406	-941.0714111328125	1347.893920898438	-16.35427665710449	-980.5925903320312	1288.758666992188	38.91370010375977	-1057.60400390625	1033.062255859375	58.57481002807617	-1051.416137695312	1028.5146484375	-35.6721305847168	-1010.098754882812	780.522216796875	64.41837310791016	-1075.494873046875	784.9747924804688	106.9239196777344	-1059.622436523438	964.796875	78.02174377441406	-1064.229736328125	613.4669189453125	77.12284851074219	-1028.068725585938	677.0089721679688	87.91119384765625	-1091.9130859375	701.5958251953125	109.3796997070312	-913.3211669921875	1562.959594726562	-90.23097991943359	-715.803466796875	1558.042846679688	-157.4812622070312	-753.046142578125	1558.189819335938	-63.062255859375	-886.7886962890625	1561.090942382812	-232.1588439941406	-960.0116577148438	879.3286743164062	-305.6725158691406	-943.0645141601562	886.1699829101562	37.83735275268555	-842.4857788085938	906.8238525390625	-17.74105644226074	-830.2727661132812	889.5537719726562	-255.8411712646484	-1054.4326171875	443.4120178222656	-287.0396728515625	-1006.932312011719	571.9850463867188	-296.0754699707031	-1308.727416992188	82.90608978271484	-253.9264526367188	-1184.328735351562	256.5652770996094	-282.3844299316406	-1113.776977539062	44.66200637817383	-190.5539245605469	-1180.491088867188	44.08681488037109	-149.2216033935547	-1190.3828125	46.57797622680664	-265.0245056152344	-1341.509033203125	101.2758941650391	-186.9349975585938	-748.63134765625	448.0158081054688	-13.29646778106689	-815.4759521484375	696.9161376953125	38.57360458374023	-690.7108764648438	45.64915084838867	-71.20259857177734	-705.8787841796875	337.107421875	-27.00580215454102	-494.7518920898438	78.12191772460938	-63.56685638427734	-532.9287109375	60.97712326049805	-119.294548034668	-598.3792724609375	47.11180114746094	-24.27973556518555	-723.029296875	40.50752639770508	-131.9632263183594	-714.3223266601562	789.3693237304688	-299.2308654785156	nan	nan	nan	nan	nan	nan	nan	nan	nan	
102	1.01	-1020.125610351562	940.4868774414062	-64.90180206298828	-1020.058898925781	947.3723754882812	-194.9017181396484	-1017.553405761719	1008.210876464844	-141.0430450439453	-770.4598388671875	1163.880737304688	-131.7693634033203	-1014.660705566406	1124.988525390625	-170.9571228027344	-945.2055053710938	1363.183715820312	-187.3016815185547	-801.1724853515625	1292.41845703125	-142.3791656494141	-1017.519836425781	1227.597045898438	-134.0535583496094	-935.4559936523438	1324.830810546875	-289.7863464355469	-835.9388427734375	1333.417602539062	-321.9728393554688	-841.4187622070312	1209.669677734375	-387.8621826171875	-821.8516235351562	1004.089416503906	-389.7561950683594	-896.4055786132812	991.0960693359375	-351.7789611816406	-740.7102661132812	759.6602783203125	-350.677734375	-797.3656005859375	899.6716918945312	-382.4088439941406	-682.214111328125	633.0809936523438	-252.6098937988281	-734.3853149414062	692.7748413085938	-326.9979553222656	-683.5052490234375	711.2808227539062	-293.2679138183594	-931.8543701171875	1348.206787109375	-14.1585578918457	-971.3699340820312	1288.789672851562	40.88381958007812	-1047.90673828125	1032.885620117188	59.85964965820312	-1041.077758789062	1028.446166992188	-34.28451538085938	-1000.741882324219	780.3187255859375	65.68875885009766	-1066.30078125	784.9803466796875	107.9735488891602	-1050.035400390625	964.7063598632812	79.28270721435547	-1055.509033203125	613.4926147460938	77.85083770751953	-1019.174194335938	676.8510131835938	88.92723083496094	-1083.0068359375	701.6203002929688	110.1427230834961	-904.303955078125	1563.477294921875	-88.06989288330078	-706.6424560546875	1559.169555664062	-154.7864379882812	-744.0437622070312	1559.186401367188	-60.4864387512207	-877.410888671875	1561.745727539062	-229.9154663085938	-948.8427124023438	879.5909423828125	-304.0237121582031	-933.0336303710938	887.5692138671875	39.76047134399414	-832.3976440429688	907.82666015625	-15.71795749664307	-819.2799072265625	889.807861328125	-253.6423034667969	-1044.686889648438	444.5785827636719	-286.2305297851562	-996.5286254882812	572.5694580078125	-295.0569763183594	-1305.678833007812	87.88187408447266	-255.6454315185547	-1177.86962890625	259.5137023925781	-282.8893432617188	-1113.43310546875	44.71905517578125	-190.9911956787109	-1179.5322265625	45.47404479980469	-149.9732666015625	-1189.037475585938	46.7192497253418	-265.8840637207031	-1337.922607421875	107.9646072387695	-188.8986206054688	-738.31884765625	449.4963684082031	-12.14192485809326	-805.2472534179688	697.9977416992188	40.28295135498047	-688.8833618164062	46.39503479003906	-71.28658294677734	-696.4727783203125	337.5985717773438	-26.75079536437988	-491.3830261230469	73.14200592041016	-66.00032806396484	-530.8421630859375	56.74169158935547	-121.2051391601562	-595.9274291992188	45.78249740600586	-25.75123977661133	-721.8899536132812	41.95075988769531	-131.8612060546875	-705.7568969726562	789.421142578125	-298.2649230957031	nan	nan	nan	nan	nan	nan	nan	nan	nan	
